<svg width="49" height="100" viewBox="0 0 49 100" fill="none" xmlns="http://www.w3.org/2000/svg">
<path d="M46.0814 0.499958C51.1864 8.91616 48.4882 36.5551 41.2394 53.1871C33.4415 71.1779 26.1792 79.9516 6.4239 95.0082C7.75353 95.423 8.88599 95.6358 9.84502 96.0131C10.9599 96.3921 12.1337 96.8052 13.0958 97.4489C13.39 97.6187 13.5759 98.5199 13.4055 98.9508C13.2352 99.3817 12.4413 99.8055 12.0707 99.7679C8.55878 99.328 5.12322 98.7558 1.59061 98.2158C0.458154 98.003 -0.0187865 97.1984 0.336316 95.9039C1.87751 91.0602 3.35986 86.1825 4.9981 81.3066C5.3945 80.2124 6.31738 79.1575 7.08128 77.8344C9.00039 80.3537 7.33116 82.5654 6.98535 84.6592C6.6602 86.8531 5.96444 89.0094 5.33373 91.7325C11.7991 88.1441 17.067 83.776 21.7609 78.6356C39.0376 59.8546 46.4948 37.6977 46.3655 13.1895C46.3283 9.99249 45.9411 6.85812 45.8069 3.69335C45.9328 2.79577 46.0205 1.96433 46.0814 0.499958Z" fill="#363636"/>
</svg>
