<svg width="165" height="25" viewBox="0 0 165 25" fill="none" xmlns="http://www.w3.org/2000/svg">
<path d="M8.64 5.8H9.792V17H8.64V12.36C7.408 12.888 6.192 13.144 5.104 13.144C2.48 13.144 0.944 11.8 0.944 9.496V5.8H2.112V9.368C2.112 11.112 3.264 12.104 5.216 12.104C6.304 12.104 7.488 11.832 8.64 11.304V5.8ZM13.3191 17V8.584H14.4551V15.272L20.0711 8.584H21.0791V17H19.9431V10.312L14.3431 17H13.3191ZM30.2548 8.584V9.592H27.0708V17H25.9348V9.592H22.7508V8.584H30.2548ZM34.7933 8.52C36.9693 8.52 38.2013 9.608 38.2013 11.784V17H37.1133V15.688C36.6013 16.552 35.6093 17.08 34.2173 17.08C32.3133 17.08 31.1453 16.088 31.1453 14.632C31.1453 13.336 31.9773 12.248 34.3932 12.248H37.0653V11.736C37.0653 10.296 36.2493 9.512 34.6813 9.512C33.5933 9.512 32.5693 9.896 31.8813 10.504L31.3693 9.656C32.2173 8.936 33.4653 8.52 34.7933 8.52ZM34.3932 16.184C35.6733 16.184 36.6173 15.576 37.0653 14.472V13.096H34.4253C32.7933 13.096 32.2653 13.736 32.2653 14.6C32.2653 15.576 33.0493 16.184 34.3932 16.184ZM47.1454 8.584V9.592H43.9614V17H42.8254V9.592H39.6414V8.584H47.1454ZM52.4039 11.56C54.5159 11.576 55.6359 12.52 55.6359 14.248C55.6359 16.04 54.4199 17.048 52.1799 17.016L48.7879 17V8.584H49.9239V11.528L52.4039 11.56ZM52.1159 16.152C53.6679 16.168 54.4839 15.512 54.4839 14.248C54.4839 13 53.6839 12.424 52.1159 12.408L49.9239 12.376V16.12L52.1159 16.152ZM67.351 12.648C68.519 12.92 69.063 13.608 69.063 14.712C69.063 16.168 68.007 17 65.815 17H61.991V8.584H65.703C67.607 8.584 68.775 9.352 68.775 10.744C68.775 11.688 68.231 12.328 67.351 12.648ZM63.095 9.48V12.328H65.623C66.919 12.328 67.639 11.832 67.639 10.888C67.639 9.944 66.919 9.48 65.623 9.48H63.095ZM65.767 16.104C67.191 16.104 67.943 15.656 67.943 14.648C67.943 13.64 67.303 13.176 65.879 13.176H63.095V16.104H65.767ZM75.2454 17.08C72.7334 17.08 70.9094 15.304 70.9094 12.792C70.9094 10.28 72.7334 8.52 75.2454 8.52C76.6694 8.52 77.8694 9.08 78.5414 10.184L77.6934 10.76C77.1174 9.912 76.2214 9.512 75.2454 9.512C73.4054 9.512 72.0614 10.824 72.0614 12.792C72.0614 14.776 73.4054 16.072 75.2454 16.072C76.2214 16.072 77.1174 15.688 77.6934 14.84L78.5414 15.416C77.8694 16.504 76.6694 17.08 75.2454 17.08ZM87.9764 12.792C87.9764 12.888 87.9604 13.016 87.9604 13.144H80.9204C81.0484 14.904 82.3924 16.072 84.2324 16.072C85.2564 16.072 86.1684 15.704 86.8084 14.968L87.4484 15.704C86.6964 16.6 85.5284 17.08 84.2004 17.08C81.5764 17.08 79.7844 15.288 79.7844 12.792C79.7844 10.296 81.5284 8.52 83.8964 8.52C86.2644 8.52 87.9764 10.264 87.9764 12.792ZM83.8964 9.496C82.2644 9.496 81.0644 10.648 80.9204 12.296H86.8884C86.7444 10.648 85.5444 9.496 83.8964 9.496ZM98.1505 17.08C95.6865 17.08 93.8625 15.288 93.8625 12.792C93.8625 10.296 95.6865 8.52 98.1505 8.52C100.615 8.52 102.423 10.296 102.423 12.792C102.423 15.288 100.615 17.08 98.1505 17.08ZM98.1505 16.072C99.9425 16.072 101.271 14.76 101.271 12.792C101.271 10.824 99.9425 9.512 98.1505 9.512C96.3585 9.512 95.0145 10.824 95.0145 12.792C95.0145 14.76 96.3585 16.072 98.1505 16.072ZM110.458 8.584V9.592H107.274V17H106.138V9.592H102.954V8.584H110.458ZM115.962 12.616C117.146 12.888 117.834 13.592 117.834 14.584C117.834 16.104 116.154 17.096 114.058 17.096C112.858 17.096 111.626 16.744 110.73 16.056L111.114 15.208C111.898 15.8 112.986 16.12 114.01 16.12C115.53 16.12 116.666 15.512 116.666 14.488C116.666 13.592 115.802 13.064 114.394 13.064H112.954V12.232H114.33C115.562 12.232 116.426 11.736 116.426 10.904C116.426 9.976 115.434 9.464 114.09 9.464C113.226 9.464 112.298 9.688 111.402 10.152L111.082 9.272C112.122 8.728 113.178 8.488 114.202 8.488C116.122 8.488 117.594 9.368 117.594 10.744C117.594 11.624 116.938 12.296 115.962 12.616ZM123.949 11.56C126.061 11.576 127.197 12.52 127.197 14.248C127.197 16.04 125.965 17.048 123.741 17.016L120.413 17V8.584H121.549V11.528L123.949 11.56ZM128.605 17V8.584H129.741V17H128.605ZM123.677 16.152C125.229 16.168 126.045 15.512 126.045 14.248C126.045 13 125.245 12.424 123.677 12.408L121.549 12.376V16.12L123.677 16.152ZM138.335 12.648C139.503 12.92 140.047 13.608 140.047 14.712C140.047 16.168 138.991 17 136.799 17H132.975V8.584H136.687C138.591 8.584 139.759 9.352 139.759 10.744C139.759 11.688 139.215 12.328 138.335 12.648ZM134.079 9.48V12.328H136.607C137.903 12.328 138.623 11.832 138.623 10.888C138.623 9.944 137.903 9.48 136.607 9.48H134.079ZM136.751 16.104C138.175 16.104 138.927 15.656 138.927 14.648C138.927 13.64 138.287 13.176 136.863 13.176H134.079V16.104H136.751ZM146.246 11.56C148.358 11.576 149.494 12.52 149.494 14.248C149.494 16.04 148.262 17.048 146.038 17.016L142.71 17V8.584H143.846V11.528L146.246 11.56ZM150.902 17V8.584H152.038V17H150.902ZM145.974 16.152C147.526 16.168 148.342 15.512 148.342 14.248C148.342 13 147.542 12.424 145.974 12.408L143.846 12.376V16.12L145.974 16.152Z" fill="#B62FD8"/>
<path d="M160 16L164 11L160 6" stroke="#B62FD8" stroke-width="1.3"/>
<line y1="24.5" x2="164" y2="24.5" stroke="#B62FD8"/>
</svg>
